# xmcd
#
# Track frame offsets:
#	150
#	13469
#	38296
#	55851
#	73563
#	95195
#	115416
#	130583
#	149705
#	170214
#	187295
#	206104
#	221463
#	239954
#	255189
#	271327
#	289446
#	305279
#	320485
#
# Disc length: 4521 seconds
#
# Revision: 0
# Processed by: cddbd v1.5PL3 Copyright (c) Steve Scherf et al.
# Submitted via: dBpowerAMP V4.0
#
DISCID=3711a713
DTITLE=Shania Twain - Üp !
DYEAR=2002
DGENRE=Country
TTITLE0=UP !
TTITLE1=I'm Gonna Getcha Good !
TTITLE2=She's Not Just A Pretty Face
TTITLE3=Juanita
TTITLE4=Forever And For Always
TTITLE5=Ain't No Particular Way
TTITLE6=It Only Hurts When I'm Breathing
TTITLE7=Nah !
TTITLE8=(Wanna Get To Know You) That Good
TTITLE9=C'est La Vie
TTITLE10=I'm Jealous
TTITLE11=Ka-Ching !
TTITLE12=Thank You Baby (For Makin Someday Come So Soon)
TTITLE13=Waiter ! Bring Me Water !
TTITLE14=What A Way To Wanna Be
TTITLE15=I Ain't Goin Down
TTITLE16=I'm Not In The Mood (To Say No) !
TTITLE17=In My Car ( I'll Be The Driver )
TTITLE18=When You Kiss Me
EXTD=
EXTT0=
EXTT1=
EXTT2=
EXTT3=
EXTT4=
EXTT5=
EXTT6=
EXTT7=
EXTT8=
EXTT9=
EXTT10=
EXTT11=
EXTT12=
EXTT13=
EXTT14=
EXTT15=
EXTT16=
EXTT17=
EXTT18=
PLAYORDER=
